<?xml version="1.0" encoding="UTF-8"?>
<!-- Generator: Adobe Illustrator 27.1.1, SVG Export Plug-In . SVG Version: 6.00 Build 0)  -->
<svg version="1.1" id="svg2" xmlns:svg="http://www.w3.org/2000/svg" xmlns:rdf="http://www.w3.org/1999/02/22-rdf-syntax-ns#" xmlns:cc="http://creativecommons.org/ns#" xmlns:dc="http://purl.org/dc/elements/1.1/" xmlns="http://www.w3.org/2000/svg" xmlns:xlink="http://www.w3.org/1999/xlink" x="0px" y="0px" width="435px" height="182px" viewBox="0 0 435 182" style="enable-background:new 0 0 435 182;" xml:space="preserve">
<style type="text/css">
	.st0{fill:#FFFFFF;}
</style>
<g id="g10" transform="matrix(1.3333333,0,0,-1.3333333,0,258.83467)">
	<path fill="transparent" id="path12" d="M0,57.6h326.3v136.5H0V57.6z"/>
	<g id="g14">
		<g>
			<g id="g16">
				<g id="g22" transform="translate(207.6983,110.4512)">
					<path id="path24" class="st0" d="M-28.9,28.8H-33c-0.4,0.5-0.8,1.1-1.2,1.7c-0.3,0.6-0.7,1.2-1,1.8c0,0.1-0.1,0.2-0.1,0.3       c0,0.1-0.1,0.2-0.1,0.2c-0.1,0.3-0.3,0.5-0.5,0.7c-0.2,0.2-0.5,0.3-0.9,0.3c-0.1,0-0.2,0-0.3,0c-0.1,0-0.2,0-0.3,0v0       c0,0,0,0,0,0v-2.2c0-0.7,0.1-1.2,0.3-1.4c0.2-0.2,0.6-0.3,1.4-0.3v-1.1h-6.4v1.1c0.7,0,1.2,0.1,1.4,0.3       c0.1,0.2,0.2,0.5,0.3,0.9c0,0.2,0,0.3,0,0.5v5.7c0,0.7-0.1,1.2-0.3,1.4c-0.2,0.2-0.6,0.3-1.4,0.3v1.1h5.8h1.2h0.4       c0.1,0,0.3,0,0.4,0c0.8-0.1,1.5-0.3,2.1-0.8c0.6-0.4,1-1.1,1-2c0-0.2,0-0.3,0-0.5c-0.1-0.5-0.2-0.9-0.5-1.2       c-0.4-0.5-0.9-0.8-1.5-1c-0.2,0-0.3-0.1-0.5-0.1c-0.2,0-0.3,0-0.5-0.1c-0.1,0-0.2,0-0.2,0c-0.1,0-0.2,0-0.3,0h-0.1h-0.1       c0.1,0,0.1,0,0.2,0c0,0,0,0-0.1,0h-0.1h-0.1c0.5,0,0.9-0.1,1.2-0.2c0.3-0.1,0.6-0.3,0.9-0.6c0.1-0.1,0.2-0.2,0.2-0.2       c0.1-0.1,0.1-0.2,0.2-0.3l1.8-2.5c0.1-0.1,0.1-0.2,0.2-0.2c0.1-0.1,0.1-0.1,0.2-0.2c0.2-0.2,0.4-0.3,0.6-0.3       c0.2,0,0.5-0.1,0.8-0.1V28.8z M-43.1,28.8h-6.6v1.1c0.8,0,1.2,0.1,1.4,0.3c0.1,0.1,0.2,0.4,0.3,0.9c0,0.2,0,0.3,0,0.5l0.1,6.2       c0-0.2-0.1-0.5-0.2-0.8c-0.1-0.2-0.2-0.5-0.2-0.7l-1.8-4.5l-0.6-1.6l-0.6-1.5h-1.4l-3.1,7.8c0,0.1-0.1,0.1-0.1,0.2       c0,0.1,0,0.1-0.1,0.2c-0.1,0.1-0.1,0.3-0.1,0.4c0,0.2-0.1,0.3-0.1,0.4v0c0,0,0,0,0,0l0-6.3c0-0.6,0.1-1,0.3-1.2       c0.2-0.2,0.6-0.3,1.2-0.3h0c0,0,0,0,0,0h0h0v-1.1h-4.8v1.1c0.7,0,1.2,0.1,1.4,0.4c0.2,0.2,0.3,0.5,0.3,1c0,0.2,0,0.3,0,0.5v5.6       c0,0.7-0.1,1.2-0.3,1.4c-0.2,0.2-0.6,0.3-1.4,0.3v1.1h5.2l2.6-6.8c0-0.1,0.1-0.2,0.1-0.4c0-0.1,0-0.2,0-0.4c0,0,0,0,0-0.1       c0,0,0-0.1,0-0.1c0,0,0-0.1,0-0.1c0,0,0-0.1,0-0.1c0,0.1,0,0.1,0,0.2c0,0,0,0,0,0c0,0,0,0,0,0c0,0.1,0,0.1,0,0.2       c0,0.1,0,0.3,0.1,0.4c0,0.1,0.1,0.2,0.1,0.4l2.7,6.8h5v-1.1c-0.7,0-1.2-0.1-1.4-0.3c-0.1-0.2-0.2-0.5-0.3-0.9       c0-0.2,0-0.3,0-0.5v-5.7c0-0.8,0.1-1.2,0.3-1.4c0.2-0.2,0.7-0.3,1.5-0.3V28.8z M-8.5,42.8h-61.9c3.7,9.9,13.8,17.1,25.7,17.1       c8.2,0,15.5-3.4,20.5-8.8h19.6c0.1,0,0.1-0.1,0.2-0.1c0,0,0,0,0,0c0,0,0,0,0,0c-6.7,15-22.2,25.5-40.3,25.5       C-67.3,76.6-86,60-88.3,38.8c-0.2-1.4-0.2-2.8-0.2-4.3c0-2.9,0.3-5.6,0.9-8.3h8.1H-19c-3.7-9.9-13.8-17.1-25.7-17.1       c-8.3,0-15.7,3.5-20.7,9H-85c0,0,0,0,0,0h0C-78.3,3-62.8-7.5-44.7-7.5C-22-7.5-3.3,9-1.1,30.2c0.2,1.4,0.2,2.9,0.2,4.3       c0,2.8-0.3,5.6-0.9,8.3H-8.5z"/>
				</g>
				<g id="g26" transform="translate(202.0981,118.3532)">
					<path id="path28" class="st0" d="M-28.9,28.8c0,0.1,0,0.3,0,0.4c0,0.6-0.2,1.1-0.5,1.5c-0.3,0.3-0.8,0.5-1.4,0.5h-1.1v0h0v-4.1       h0.6h0.6c0.6,0,1.1,0.2,1.3,0.7C-29.1,28-28.9,28.4-28.9,28.8"/>
				</g>
				<g id="g30" transform="translate(143.7195,116.1623)">
					<path id="path32" class="st0" d="M-28.9,28.8c0,25.2,21.6,45.7,48.2,45.7c26.6,0,48.2-20.5,48.2-45.7S45.9-16.9,19.3-16.9       C-7.3-16.9-28.9,3.6-28.9,28.8 M70.4,30.3v0.4h111v2.1c-30.1,1.8-87,5.1-116.9,18.7c-8.6,15.4-25.6,26-45.2,26       c-19.6,0-36.7-10.6-45.3-26.1c-30-13.5-86.6-16.8-116.6-18.6v-2.1h110.8v-0.4V30h0c0-0.4,0-0.8,0-1.2c0-0.4,0-0.8,0-1.2h0v-0.2       V27h-110.8v-2c30-1.8,86.6-5.1,116.6-18.6c8.5-15.5,25.6-26.1,45.3-26.1c19.6,0,36.6,10.6,45.2,26       c30,13.6,86.8,16.9,116.9,18.7v2h-111v0.4v0.2h0c0,0.4,0,0.8,0,1.2c0,0.4,0,0.8,0,1.2h0V30.3z"/>
				</g>
				<g id="g34" transform="translate(46.4723,30.6272)">
					<path id="path36" class="st0" d="M-28.9,28.8l-9.9,18.5V30.9c0-0.4,0.1-0.7,0.3-0.9c0.2-0.2,0.5-0.4,1-0.5v-0.6h-7.9v0.6       c0.5,0.1,0.8,0.3,1,0.5c0.2,0.2,0.3,0.5,0.3,0.9v22.7c0,0.4-0.1,0.7-0.3,0.9c-0.2,0.2-0.5,0.4-1,0.5v0.6H-35v-0.6       c-0.6-0.2-0.9-0.5-0.9-1.1c0-0.3,0.1-0.6,0.3-0.9l7.3-13.8l7.4,13.6c0.3,0.6,0.5,1,0.5,1.3c0,0.5-0.3,0.8-1,0.9v0.6h10.1v-0.6       c-0.5-0.1-0.8-0.3-1-0.5c-0.2-0.2-0.3-0.5-0.3-0.9V30.9c0-0.4,0.1-0.7,0.3-0.9c0.2-0.2,0.5-0.4,1-0.5v-0.6h-8.3v0.6       c0.5,0.1,0.8,0.3,1,0.5c0.2,0.2,0.3,0.5,0.3,0.9v16.4L-28.9,28.8z"/>
				</g>
				<g id="g38" transform="translate(77.2078,43.6204)">
					<path id="path40" class="st0" d="M-28.9,28.8h7.9c1.2,0,2.1,0.1,2.7,0.4c0.8,0.4,1.2,1.1,1.2,2.1c0,0.9-0.3,1.6-0.9,1.9       c-0.6,0.4-1.6,0.5-3,0.5h-7.9V28.8z M-28.9,24.8v-7c0-0.4,0.1-0.7,0.3-0.9s0.5-0.4,1-0.5v-0.5h-7.8v0.5c0.5,0.1,0.8,0.3,1,0.5       c0.2,0.2,0.3,0.5,0.3,0.9v18c0,0.4-0.1,0.7-0.3,0.9c-0.2,0.2-0.5,0.4-1,0.5v0.5H-21c1.9,0,3.3-0.1,4.3-0.3c1-0.2,1.9-0.5,2.6-1       c1.6-1,2.4-2.7,2.4-5.1c0-1.8-0.5-3.2-1.5-4.2c-1-1-2.5-1.7-4.7-2.2l4.2-5.8c0.8-1.1,1.4-1.8,1.8-2.2c0.5-0.4,1-0.6,1.5-0.7       v-0.5h-9.2v0.5c0.7,0.2,1,0.5,1,0.9c0,0.3-0.2,0.7-0.6,1.3l-4.4,6.3H-28.9z"/>
				</g>
				<g id="g42" transform="translate(108.6993,44.9725)">
					<path id="path44" class="st0" d="M-28.9,28.8v-6.8h-0.6c-0.1,0.5-0.3,0.8-0.5,1c-0.2,0.2-0.5,0.3-0.9,0.3h-4.8       c-0.4,0-0.7-0.1-0.9-0.3c-0.2-0.2-0.4-0.5-0.5-1h-0.6v6.8h0.6c0.1-0.5,0.3-0.8,0.5-1c0.2-0.2,0.5-0.3,0.9-0.3h4.9       c0.4,0,0.7,0.1,0.9,0.3c0.2,0.2,0.4,0.5,0.5,1H-28.9z"/>
				</g>
				<g id="g46" transform="translate(138.4062,55.1121)">
					<path id="path48" class="st0" d="M-28.9,28.8l-3.2-6.3l-0.5,0.3c0,0.1,0,0.2,0,0.3c0,0.4-0.4,0.9-1.1,1.4       c-2.3,1.6-5.1,2.4-8.2,2.4c-1.4,0-2.6-0.2-3.7-0.5c-0.8-0.3-1.4-0.7-1.9-1.2c-0.5-0.5-0.7-1.1-0.7-1.7c0-1,0.6-1.7,1.8-2.1       c0.6-0.2,2-0.4,4-0.6l3.1-0.3c1.8-0.2,3.3-0.5,4.4-0.8c1.1-0.3,2.1-0.8,3-1.4c0.9-0.6,1.6-1.5,2.1-2.5c0.5-1,0.8-2.2,0.8-3.3       c0-1.9-0.6-3.6-1.8-5c-1.1-1.3-2.8-2.3-5.1-3c-1.7-0.5-3.6-0.7-5.5-0.7c-3.5,0-7,0.8-10.5,2.5c-0.7,0.3-1.2,0.5-1.3,0.5       c-0.2,0-0.4-0.1-0.8-0.4l-0.6,0.3l2.9,6.6l0.6-0.3v-0.3c0-0.6,0.3-1.1,0.8-1.6c0.8-0.8,2.2-1.4,3.9-2c1.8-0.5,3.5-0.8,5.1-0.8       c1.7,0,3.2,0.3,4.4,0.9c0.7,0.3,1.2,0.8,1.6,1.3c0.4,0.5,0.6,1.1,0.6,1.7c0,0.9-0.5,1.5-1.4,1.9c-0.7,0.3-2,0.5-4,0.7l-3,0.3       c-2,0.2-3.5,0.4-4.3,0.6c-0.8,0.2-1.7,0.5-2.5,0.9c-1.2,0.6-2.1,1.5-2.8,2.6c-0.6,1.1-0.9,2.3-0.9,3.6c0,2.3,0.8,4.1,2.3,5.6       c2,1.9,5.1,2.9,9.2,2.9c1.7,0,3.3-0.2,4.8-0.5c1.5-0.3,3.3-1,5.5-1.9c0.8-0.3,1.2-0.5,1.4-0.5c0.3,0,0.6,0.1,1,0.5L-28.9,28.8z       "/>
				</g>
				<g id="g50" transform="translate(152.5428,44.9725)">
					<path id="path52" class="st0" d="M-28.9,28.8v-6.8h-0.6c-0.1,0.5-0.3,0.8-0.5,1c-0.2,0.2-0.5,0.3-0.9,0.3h-4.8       c-0.4,0-0.7-0.1-0.9-0.3c-0.2-0.2-0.4-0.5-0.5-1h-0.6v6.8h0.6c0.1-0.5,0.3-0.8,0.5-1c0.2-0.2,0.5-0.3,0.9-0.3h4.9       c0.4,0,0.7,0.1,0.9,0.3s0.4,0.5,0.5,1H-28.9z"/>
				</g>
				<g id="g54" transform="translate(164.4554,35.0367)">
					<path id="path56" class="st0" d="M-28.9,28.8h16.4c0.4,0,0.7,0.1,0.9,0.3c0.2,0.2,0.4,0.5,0.5,1h0.6v-6.9H-11       c-0.1,0.5-0.3,0.8-0.5,1c-0.2,0.2-0.5,0.3-0.9,0.3H-36V25c0.5,0.1,0.8,0.3,1,0.5c0.2,0.2,0.3,0.5,0.3,0.9v22.6       c0,0.4-0.1,0.7-0.3,0.9c-0.2,0.2-0.5,0.4-1,0.5v0.6h8.3v-0.6c-0.5-0.1-0.8-0.3-1-0.5c-0.2-0.2-0.3-0.5-0.3-0.9V28.8z"/>
				</g>
				<g id="g58" transform="translate(194.1824,39.9556)">
					<path id="path60" class="st0" d="M-28.9,28.8v-5.4h13.9c0.4,0,0.7,0.1,0.9,0.3s0.4,0.5,0.5,1h0.5v-6.5h-0.5       c-0.1,0.5-0.3,0.8-0.5,1c-0.2,0.2-0.5,0.3-0.9,0.3h-20.4V20c0.5,0.1,0.8,0.3,1,0.5c0.2,0.2,0.3,0.5,0.3,0.9v18       c0,0.4-0.1,0.7-0.3,0.9s-0.5,0.4-1,0.5v0.5h19.8c0.4,0,0.7,0.1,1,0.3s0.4,0.5,0.5,1h0.5v-6.5h-0.5c-0.1,0.5-0.3,0.8-0.5,1       s-0.5,0.3-1,0.3h-13.3v-4.8h8.3c0.4,0,0.7,0.1,0.9,0.3c0.2,0.2,0.4,0.5,0.5,1h0.5v-6.3h-0.5c-0.1,0.5-0.3,0.8-0.5,1       c-0.2,0.2-0.5,0.3-1,0.3H-28.9z"/>
				</g>
				<g id="g62" transform="translate(231.5287,39.1911)">
					<path id="path64" class="st0" d="M-28.9,28.8l-3.6,7.1l-3.4-7.1H-28.9z M-27.3,25.7h-10.1l-1.1-2.4c-0.3-0.6-0.4-1-0.4-1.4       c0-0.6,0.4-1,1.3-1.2v-0.5h-8.1v0.5c0.5,0.1,0.9,0.2,1.1,0.5c0.2,0.2,0.5,0.7,0.9,1.3l8,16.2c0.3,0.6,0.5,1.2,0.5,1.6       c0,0.5-0.4,1-1.1,1.3v0.5h8.5v-0.5c-0.7-0.3-1.1-0.7-1.1-1.3c0-0.4,0.2-1,0.5-1.6l8.3-15.7c0.5-0.9,0.8-1.4,1.1-1.7       c0.3-0.3,0.7-0.4,1.2-0.5v-0.5h-9v0.5c0.8,0.1,1.3,0.5,1.3,1.2c0,0.4-0.2,0.9-0.5,1.5L-27.3,25.7z"/>
				</g>
				<g id="g66" transform="translate(256.0365,48.5982)">
					<path id="path68" class="st0" d="M-28.9,28.8v-16c0-0.4,0.1-0.7,0.3-0.9c0.2-0.2,0.5-0.4,1-0.5v-0.5h-7.8v0.5       c0.5,0.1,0.8,0.3,1,0.5c0.2,0.2,0.3,0.5,0.3,0.9v16h-6.5c-0.4,0-0.7-0.1-0.9-0.3c-0.2-0.2-0.4-0.5-0.5-1h-0.5V34h0.5       c0.1-0.5,0.3-0.8,0.5-1c0.2-0.2,0.5-0.3,1-0.3h18.2c0.4,0,0.7,0.1,1,0.3c0.2,0.2,0.4,0.5,0.5,1h0.5v-6.5h-0.5       c-0.1,0.5-0.3,0.8-0.5,1c-0.2,0.2-0.5,0.3-1,0.3H-28.9z"/>
				</g>
				<g id="g70" transform="translate(288.0984,40.1906)">
					<path id="path72" class="st0" d="M-28.9,28.8h-12.3v-7.5c0-0.4,0.1-0.7,0.3-0.9c0.2-0.2,0.5-0.4,1-0.5v-0.5h-7.8v0.5       c0.5,0.1,0.8,0.3,1,0.5c0.2,0.2,0.3,0.5,0.3,0.9v18c0,0.4-0.1,0.7-0.3,0.9c-0.2,0.2-0.5,0.4-1,0.5v0.5h7.8v-0.5       c-0.5-0.1-0.8-0.3-1-0.5c-0.2-0.2-0.3-0.5-0.3-0.9v-6.4h12.3v6.4c0,0.4-0.1,0.7-0.3,0.9c-0.2,0.2-0.5,0.4-1,0.5v0.5h7.8v-0.5       c-0.5-0.1-0.8-0.3-1-0.5c-0.2-0.2-0.3-0.5-0.3-0.9V21.3c0-0.4,0.1-0.7,0.3-0.9c0.2-0.2,0.5-0.4,1-0.5v-0.5h-7.8v0.5       c0.5,0.1,0.8,0.3,1,0.5c0.2,0.2,0.3,0.5,0.3,0.9V28.8z"/>
				</g>
				<g id="g74" transform="translate(307.3601,39.9556)">
					<path id="path76" class="st0" d="M-28.9,28.8v-5.4h13.9c0.4,0,0.7,0.1,0.9,0.3s0.4,0.5,0.5,1h0.5v-6.5h-0.5       c-0.1,0.5-0.3,0.8-0.5,1c-0.2,0.2-0.5,0.3-0.9,0.3h-20.4V20c0.5,0.1,0.8,0.3,1,0.5c0.2,0.2,0.3,0.5,0.3,0.9v18       c0,0.4-0.1,0.7-0.3,0.9s-0.5,0.4-1,0.5v0.5h19.8c0.4,0,0.7,0.1,0.9,0.3s0.4,0.5,0.5,1h0.5v-6.5h-0.5c-0.1,0.5-0.3,0.8-0.5,1       s-0.5,0.3-0.9,0.3h-13.3v-4.8h8.3c0.4,0,0.7,0.1,0.9,0.3c0.2,0.2,0.4,0.5,0.5,1h0.5v-6.3h-0.5c-0.1,0.5-0.3,0.8-0.5,1       c-0.2,0.2-0.5,0.3-1,0.3H-28.9z"/>
				</g>
				<g id="g78" transform="translate(335.5193,43.6204)">
					<path id="path80" class="st0" d="M-28.9,28.8h7.9c1.2,0,2.1,0.1,2.7,0.4c0.8,0.4,1.2,1.1,1.2,2.1c0,0.9-0.3,1.6-0.9,1.9       c-0.6,0.4-1.6,0.5-3,0.5h-7.9V28.8z M-28.9,24.8v-7c0-0.4,0.1-0.7,0.3-0.9s0.5-0.4,1-0.5v-0.5h-7.8v0.5c0.5,0.1,0.8,0.3,1,0.5       c0.2,0.2,0.3,0.5,0.3,0.9v18c0,0.4-0.1,0.7-0.3,0.9c-0.2,0.2-0.5,0.4-1,0.5v0.5H-21c1.9,0,3.3-0.1,4.3-0.3c1-0.2,1.9-0.5,2.6-1       c1.6-1,2.4-2.7,2.4-5.1c0-1.8-0.5-3.2-1.5-4.2c-1-1-2.5-1.7-4.7-2.2l4.2-5.8c0.8-1.1,1.4-1.8,1.8-2.2c0.5-0.4,1-0.6,1.5-0.7       v-0.5h-9.2v0.5c0.7,0.2,1,0.5,1,0.9c0,0.3-0.2,0.7-0.6,1.3l-4.4,6.3H-28.9z"/>
				</g>
			</g>
		</g>
	</g>
</g>
</svg>