<?xml version="1.0" standalone="no"?>
<!DOCTYPE svg PUBLIC "-//W3C//DTD SVG 20010904//EN"
 "http://www.w3.org/TR/2001/REC-SVG-20010904/DTD/svg10.dtd">
<svg version="1.0" xmlns="http://www.w3.org/2000/svg"
 width="2048.000000pt" height="2048.000000pt" viewBox="0 0 2048.000000 2048.000000"
 preserveAspectRatio="xMidYMid meet">
<metadata>
Created by potrace 1.14, written by Peter Selinger 2001-2017
</metadata>
<g transform="translate(0.000000,2048.000000) scale(0.100000,-0.100000)"
fill="#000000" stroke="none">
<path d="M9907 20344 c-1 -1 -67 -5 -147 -8 -194 -8 -305 -14 -365 -20 -27 -3
-79 -8 -115 -11 -36 -3 -90 -8 -120 -11 -30 -3 -71 -7 -90 -9 -19 -2 -55 -6
-80 -9 -25 -3 -65 -8 -90 -11 -25 -3 -58 -8 -75 -11 -16 -3 -43 -7 -60 -9 -73
-9 -124 -16 -170 -25 -27 -5 -68 -12 -90 -15 -23 -3 -52 -7 -65 -10 -14 -3
-50 -9 -80 -15 -30 -6 -66 -12 -80 -15 -14 -3 -41 -8 -60 -11 -57 -11 -63 -12
-115 -24 -27 -6 -61 -14 -75 -16 -14 -3 -45 -10 -70 -15 -25 -6 -52 -12 -60
-14 -20 -4 -100 -24 -122 -30 -17 -5 -45 -12 -78 -20 -8 -2 -15 -4 -15 -5 0
-1 -11 -3 -25 -5 -14 -2 -79 -19 -145 -38 -66 -19 -165 -47 -220 -62 -55 -16
-102 -31 -105 -34 -3 -3 -14 -7 -25 -9 -11 -2 -27 -6 -35 -9 -8 -3 -19 -7 -25
-9 -47 -13 -195 -62 -310 -104 -77 -27 -146 -50 -152 -50 -7 0 -13 -4 -13 -10
0 -5 -7 -10 -15 -10 -14 0 -371 -141 -478 -189 -23 -10 -57 -25 -74 -32 -18
-8 -33 -17 -33 -21 0 -5 -3 -7 -7 -6 -9 2 -34 -9 -158 -68 -44 -21 -82 -38
-85 -39 -26 -8 -348 -176 -472 -246 -48 -27 -92 -49 -98 -49 -5 0 -10 -4 -10
-10 0 -5 -4 -10 -10 -10 -8 0 -98 -52 -205 -117 -11 -7 -31 -18 -45 -25 -14
-7 -30 -17 -37 -23 -6 -5 -41 -28 -78 -50 -36 -22 -115 -73 -176 -112 -61 -40
-114 -73 -120 -73 -5 0 -9 -3 -9 -8 0 -4 -18 -18 -40 -32 -22 -14 -40 -28 -40
-32 0 -5 -6 -8 -13 -8 -7 0 -22 -8 -33 -18 -10 -9 -32 -26 -49 -36 -43 -28
-406 -300 -432 -325 -12 -12 -26 -21 -32 -21 -5 0 -11 -3 -13 -7 -1 -5 -55
-51 -118 -103 -63 -52 -120 -99 -126 -105 -6 -5 -32 -28 -58 -50 -27 -22 -63
-53 -81 -70 -18 -16 -70 -64 -115 -105 -175 -159 -388 -368 -552 -541 -117
-125 -134 -143 -211 -233 -23 -26 -55 -63 -72 -81 -16 -18 -39 -43 -50 -56
-54 -66 -121 -145 -132 -157 -7 -7 -27 -33 -44 -57 -18 -25 -36 -45 -41 -45
-4 0 -8 -5 -8 -10 0 -6 -10 -22 -23 -35 -12 -13 -38 -45 -57 -72 -19 -26 -37
-50 -41 -53 -15 -13 -159 -212 -159 -220 0 -4 -4 -10 -9 -12 -4 -1 -38 -46
-74 -98 -37 -52 -70 -99 -74 -105 -5 -5 -31 -44 -58 -85 -135 -206 -175 -270
-175 -280 0 -5 -4 -10 -9 -10 -5 0 -14 -13 -21 -30 -7 -16 -16 -30 -20 -30 -4
0 -11 -11 -14 -25 -4 -14 -11 -25 -16 -25 -6 0 -10 -4 -10 -10 0 -5 -25 -50
-55 -101 -30 -50 -55 -94 -55 -96 0 -3 -9 -18 -21 -34 -11 -16 -17 -29 -12
-29 4 0 3 -4 -3 -8 -14 -9 -66 -106 -192 -352 -57 -113 -110 -211 -116 -219
-6 -8 -9 -15 -7 -15 2 -1 -12 -35 -31 -76 -43 -91 -87 -188 -98 -215 -5 -11
-18 -40 -29 -65 -10 -25 -36 -85 -56 -135 -20 -49 -40 -99 -45 -110 -11 -23
-32 -76 -36 -90 -1 -5 -21 -57 -43 -115 -56 -147 -130 -355 -134 -377 -2 -10
-7 -25 -10 -33 -14 -37 -58 -172 -77 -240 -62 -213 -107 -376 -114 -412 -3
-12 -16 -66 -29 -118 -20 -78 -41 -170 -51 -225 -1 -5 -5 -19 -9 -30 -3 -11
-8 -36 -11 -55 -3 -19 -8 -46 -11 -60 -12 -52 -26 -126 -31 -160 -3 -19 -7
-42 -10 -51 -2 -9 -7 -32 -9 -50 -3 -19 -7 -45 -10 -59 -3 -14 -7 -41 -10 -60
-5 -37 -12 -81 -20 -115 -4 -20 -15 -109 -21 -170 -1 -16 -3 -30 -4 -30 -2 0
-8 -49 -15 -110 -3 -27 -7 -68 -10 -90 -3 -22 -8 -65 -11 -95 -3 -30 -7 -73
-9 -95 -4 -47 -15 -181 -20 -245 -33 -430 -23 -1213 20 -1630 2 -19 6 -66 10
-105 3 -38 8 -81 10 -95 3 -14 7 -46 10 -72 7 -70 16 -138 21 -178 12 -83 26
-171 30 -195 2 -11 7 -40 9 -65 3 -25 8 -52 10 -60 2 -8 7 -31 10 -50 3 -19
10 -57 15 -85 5 -27 12 -61 14 -75 3 -14 5 -25 6 -25 1 0 3 -13 5 -30 3 -16
14 -73 25 -125 12 -52 23 -104 25 -115 3 -11 7 -31 10 -45 3 -14 7 -34 9 -45
6 -27 40 -163 66 -260 12 -44 28 -107 36 -140 8 -33 18 -67 21 -75 4 -8 8 -19
8 -25 1 -5 4 -17 7 -25 3 -8 13 -42 23 -75 9 -33 20 -67 23 -75 3 -8 6 -19 7
-25 20 -87 189 -563 280 -787 61 -152 58 -144 94 -220 17 -36 31 -69 31 -73 0
-20 268 -571 350 -720 18 -33 45 -82 59 -110 14 -27 29 -52 32 -55 3 -3 23
-36 44 -75 21 -38 50 -88 63 -110 14 -22 24 -42 23 -44 -2 -2 1 -7 6 -10 4 -3
15 -18 23 -33 40 -72 338 -530 373 -573 4 -5 46 -64 93 -130 81 -113 184 -249
218 -287 9 -10 16 -21 16 -24 0 -3 6 -11 13 -18 6 -7 26 -30 42 -51 17 -21 46
-57 65 -80 19 -23 51 -61 71 -86 33 -39 54 -65 124 -148 107 -126 329 -364
501 -535 127 -126 334 -326 334 -321 0 2 15 -11 33 -28 57 -56 189 -172 206
-181 8 -5 23 -17 31 -27 13 -15 98 -86 250 -209 24 -19 94 -73 154 -120 61
-46 116 -88 121 -92 98 -79 597 -418 615 -418 6 0 10 -3 10 -7 0 -5 23 -21 51
-38 28 -16 68 -40 88 -53 20 -12 47 -28 61 -35 14 -6 27 -14 30 -17 5 -6 115
-71 180 -107 19 -11 67 -37 105 -58 39 -22 72 -43 73 -47 2 -4 11 -8 20 -9 10
0 31 -9 47 -19 62 -38 524 -266 655 -322 25 -11 60 -26 77 -34 85 -37 102 -44
153 -64 30 -12 71 -28 90 -37 19 -8 44 -19 55 -23 11 -4 38 -15 60 -24 68 -27
100 -39 105 -41 19 -4 117 -39 125 -44 6 -3 15 -7 20 -8 6 -1 91 -30 190 -64
153 -52 340 -111 395 -124 8 -2 33 -10 55 -18 22 -8 58 -18 80 -22 45 -10 54
-12 58 -15 1 -1 9 -3 17 -5 8 -3 42 -12 75 -20 62 -17 121 -31 165 -40 14 -3
30 -8 37 -10 15 -5 310 -70 368 -81 22 -4 45 -8 50 -9 6 -2 27 -5 47 -9 21 -3
58 -10 82 -16 24 -5 68 -13 98 -16 29 -3 56 -8 60 -10 3 -2 27 -7 51 -9 25 -3
56 -8 68 -10 13 -3 44 -7 69 -10 74 -9 112 -15 134 -20 12 -3 44 -7 71 -10 86
-8 148 -15 200 -21 28 -4 66 -8 85 -9 51 -4 199 -16 240 -20 115 -12 405 -20
745 -20 398 0 564 6 835 30 41 4 95 8 119 10 41 3 112 11 186 20 17 2 59 7 95
10 36 4 74 9 85 11 11 3 40 7 65 10 74 8 194 27 372 58 77 13 260 48 298 56
25 6 55 13 68 15 12 3 32 7 45 10 12 3 37 8 55 11 18 3 35 10 38 15 3 5 9 7
14 4 5 -3 46 4 92 16 46 11 91 22 100 24 16 3 135 35 208 55 357 100 916 289
1096 370 24 11 46 20 49 20 4 0 21 6 38 14 18 8 66 29 107 47 41 17 108 47
148 65 41 19 75 34 77 34 2 0 42 18 89 41 47 22 88 39 92 39 4 -1 10 2 13 7 3
4 87 49 185 98 99 50 225 115 280 146 56 30 128 70 161 89 33 18 72 41 87 51
14 11 28 19 31 19 6 0 112 64 208 126 38 24 72 44 75 44 3 0 11 6 19 12 7 7
32 25 56 40 66 41 73 46 209 137 69 47 153 105 187 130 34 25 74 55 90 66 55
40 318 239 323 245 3 3 39 33 80 66 41 32 80 64 86 69 6 6 32 28 59 50 49 40
273 238 374 330 75 69 442 435 521 521 36 39 97 106 135 149 39 43 80 90 93
104 12 13 33 38 45 54 12 16 32 39 43 50 29 29 249 302 309 382 16 22 33 42
37 43 4 2 8 8 8 14 0 5 7 16 15 25 24 23 270 372 370 523 123 186 275 434 275
448 0 3 6 13 14 21 13 15 23 33 104 181 19 36 46 83 59 105 12 22 41 76 63
120 23 44 45 87 50 95 19 32 240 498 240 506 0 6 50 118 66 147 8 15 12 27 8
27 -3 0 -1 7 6 15 7 8 9 15 4 15 -5 0 -3 4 3 8 7 4 14 17 16 27 2 11 8 30 15
42 7 12 12 29 12 37 0 9 5 16 10 16 6 0 10 10 10 23 0 12 7 31 15 41 8 11 15
25 15 32 0 6 7 28 15 48 8 20 15 38 15 41 1 3 9 25 20 50 44 104 252 746 266
825 3 14 8 34 11 45 4 11 8 25 9 30 11 38 75 294 79 310 2 11 16 70 29 130 14
61 28 126 31 145 3 19 8 42 10 50 2 8 7 31 10 50 3 19 10 58 16 87 5 28 11 61
12 72 1 12 5 21 10 21 4 0 6 4 2 9 -3 5 1 47 9 93 8 46 17 103 21 128 6 41 8
58 20 130 5 30 14 108 20 170 3 25 7 56 9 70 3 14 8 61 11 104 4 43 8 86 10
95 3 16 15 162 21 256 15 250 19 380 19 705 -1 427 -10 665 -40 945 -2 22 -7
74 -10 115 -4 41 -9 86 -11 100 -3 14 -7 43 -8 65 -2 22 -7 65 -11 95 -4 30
-9 64 -11 75 -1 11 -3 20 -4 20 -1 0 -3 18 -5 40 -2 22 -6 55 -9 73 -3 17 -8
44 -10 60 -15 96 -39 235 -62 347 -14 72 -28 144 -30 160 -3 17 -7 37 -10 45
-3 8 -8 26 -10 39 -5 26 -32 147 -38 171 -2 8 -11 42 -19 75 -9 33 -18 71 -21
85 -4 21 -45 171 -86 315 -33 117 -69 236 -75 245 -3 5 -8 18 -10 27 -1 10
-26 86 -55 168 -28 83 -53 155 -54 160 -3 10 -8 25 -23 63 -3 9 -7 19 -8 22
-1 3 -7 18 -13 33 -7 16 -12 30 -12 32 0 6 -115 295 -135 341 -8 19 -21 49
-29 67 -58 136 -82 189 -106 239 -16 31 -26 59 -22 62 3 3 0 6 -6 6 -7 0 -12
5 -12 10 0 6 -41 93 -90 193 -115 233 -183 360 -281 529 -21 36 -39 71 -39 77
0 6 -3 11 -8 11 -4 0 -18 21 -32 48 -13 26 -27 49 -30 52 -8 7 -29 42 -43 70
-6 14 -15 30 -20 35 -4 6 -22 33 -39 60 -126 202 -480 715 -507 735 -4 3 -18
21 -31 40 -21 30 -112 147 -149 192 -6 7 -63 76 -127 153 -64 77 -144 171
-178 209 -33 38 -69 78 -78 89 -147 169 -592 612 -750 749 -13 11 -52 46 -88
78 -71 64 -306 260 -359 300 -18 14 -40 32 -49 40 -10 9 -53 43 -97 75 -44 33
-82 63 -85 66 -3 3 -39 30 -80 60 -41 29 -76 57 -78 61 -2 5 -10 8 -17 8 -7 0
-15 4 -17 8 -2 5 -41 35 -88 67 -47 32 -113 78 -146 102 -34 24 -67 43 -73 43
-6 0 -11 4 -11 8 0 5 -12 15 -27 23 -16 8 -30 16 -33 19 -5 6 -220 143 -270
173 -17 9 -43 25 -59 35 -81 48 -211 123 -256 147 -27 15 -54 31 -60 35 -16
12 -214 115 -295 155 -41 20 -82 40 -90 45 -45 26 -269 133 -385 182 -38 17
-95 41 -125 55 -30 14 -89 38 -130 55 -41 16 -93 37 -115 47 -51 23 -118 46
-127 43 -5 -1 -8 3 -8 8 0 6 -8 10 -18 10 -10 0 -22 3 -26 7 -3 4 -12 8 -19
10 -7 1 -100 34 -207 72 -155 55 -306 105 -350 116 -3 1 -12 4 -20 8 -29 11
-265 79 -295 84 -16 3 -38 9 -47 14 -10 5 -18 7 -18 4 0 -3 -8 -1 -17 4 -10 5
-35 12 -56 15 -21 3 -47 11 -58 16 -10 6 -19 9 -19 6 0 -3 -15 0 -32 5 -18 5
-51 14 -73 19 -22 5 -71 16 -110 25 -38 9 -79 18 -90 20 -11 2 -63 13 -115 24
-153 32 -422 80 -480 86 -19 2 -57 8 -85 13 -27 5 -57 10 -65 11 -8 0 -24 2
-35 4 -42 8 -161 21 -182 21 -13 0 -23 2 -23 5 0 3 -12 6 -27 7 -16 0 -64 3
-108 8 -303 28 -284 27 -555 41 -109 6 -777 14 -783 9z"/>
</g>
</svg>
